<svg xmlns="http://www.w3.org/2000/svg" viewBox="0 0 1060 740">
    <!-- Background -->
    <rect width="1060" height="740" fill="#009c3b"/>
    <!-- Diamond -->
    <polygon points="530,0 1060,370 530,740 0,370" fill="#ffcc29"/>
    <!-- Circle -->
    <circle cx="530" cy="370" r="185" fill="#002776"/>
    <!-- Stars and text -->
    <g fill="#fff">
        <polygon points="530,370 489.555,461.123 389.064,461.123 467.18,512.877 417.817,613.623 530,545.75 642.183,613.623 592.82,512.877 670.936,461.123 570.445,461.123"/>
        <circle cx="530" cy="285" r="80"/>
        <path d="M530 229.5a55.5 55.5 0 1 0 0 111 55.5 55.5 0 0 0 0-111zm0 85a29.5 29.5 0 1 1 0-59 29.5 29.5 0 0 1 0 59z"/>
        <text x="505" y="295" font-family="Arial" font-size="65" text-anchor="middle">B</text>
        <text x="555" y="295" font-family="Arial" font-size="65" text-anchor="middle">R</text>
    </g>
</svg>
